<?xml version="1.0" encoding="UTF-8"?>
<svg width="900px" height="650px" viewBox="0 0 900 650" version="1.1" xmlns="http://www.w3.org/2000/svg" xmlns:xlink="http://www.w3.org/1999/xlink">
    <!-- Generator: Sketch 47 (45396) - http://www.bohemiancoding.com/sketch -->
    <title>zombie:maze</title>
    <desc>Created with Sketch.</desc>
    <defs>
        <linearGradient x1="44.6705498%" y1="52.2683491%" x2="58.6674621%" y2="98.7542154%" id="linearGradient-1">
            <stop stop-color="#F4516D" offset="0%"></stop>
            <stop stop-color="#AC223A" offset="100%"></stop>
        </linearGradient>
    </defs>
    <g id="Page-1" stroke="none" stroke-width="1" fill="none" fill-rule="evenodd">
        <g id="zombie:maze">
            <g>
                <rect id="Rectangle" fill-opacity="0.780000031" fill="#1089BC" fill-rule="nonzero" x="0" y="0" width="900" height="650"></rect>
                <g id="labyrinth" transform="translate(196.000000, 69.000000)" fill-rule="nonzero">
                    <path d="M254.697684,511.655823 C294.068996,511.655823 331.350749,502.663698 364.620901,486.611294 C450.042776,445.396382 509.019493,357.638888 509.019493,256.036356 C509.019493,114.861622 395.155741,0.416889607 254.697684,0.416889607 C114.239627,0.416889607 0.375875522,114.861622 0.375875522,256.036356 C0.375875522,397.21109 114.239627,511.655823 254.697684,511.655823 Z" id="Oval" fill="url(#linearGradient-1)"></path>
                    <g id="Shape" transform="translate(114.977679, 113.848028)">
                        <path d="M16.2572408,2.10386392 L262.285692,2.10386392 C270.329121,2.10386392 276.479652,8.37537059 276.479652,16.5770065 L276.479652,267.444623 C276.479652,275.646259 270.329121,281.917765 262.285692,281.917765 L16.2572408,281.917765 C8.21381207,281.917765 2.06328099,275.646259 2.06328099,267.444623 L2.06328099,16.5770065 C2.06328099,8.37537059 8.21381207,2.10386392 16.2572408,2.10386392 Z" fill="#7EE1E6"></path>
                        <path d="M262.019025,284.021629 L87.3398599,284.021629 C85.9235407,284.021629 84.9791436,283.058658 84.9791436,281.614479 L84.9791436,243.10291 C84.9791436,241.658733 85.9235407,240.695761 87.3398599,240.695761 L191.203073,240.695761 C192.619392,240.695761 193.56379,241.658733 193.56379,243.10291 C193.56379,244.547087 192.619392,245.510059 191.203073,245.510059 L89.7000227,245.510059 L89.7000227,279.207329 L262.019025,279.207329 C268.628699,279.207329 273.8215,273.911828 273.8215,267.172711 L273.8215,245.510059 L219.529454,245.510059 C218.113135,245.510059 217.168738,244.547087 217.168738,243.10291 L217.168738,158.85945 L174.679167,158.85945 L174.679167,182.929252 L191.203073,182.929252 C192.619392,182.929252 193.56379,183.892225 193.56379,185.336401 C193.56379,186.780578 192.619392,187.743551 191.203073,187.743551 L172.319003,187.743551 C170.902685,187.743551 169.958287,186.780578 169.958287,185.336401 L169.958287,156.452865 C169.958287,155.008688 170.902685,154.045716 172.319003,154.045716 L219.529454,154.045716 C220.945774,154.045716 221.890171,155.008688 221.890171,156.452865 L221.890171,240.696325 L273.822054,240.696325 L273.822054,216.626523 L247.855836,216.626523 C246.439516,216.626523 245.49512,215.66355 245.49512,214.219374 C245.49512,212.775197 246.439516,211.812224 247.855836,211.812224 L273.8215,211.812224 L273.8215,72.2088411 L250.215998,72.2088411 L250.215998,98.685228 C250.215998,100.129405 249.271602,101.092377 247.855282,101.092377 C246.438964,101.092377 245.494567,100.129405 245.494567,98.685228 L245.494567,72.2088411 L228.970659,72.2088411 C227.55434,72.2088411 226.609943,71.2458685 226.609943,69.8016916 L226.609943,31.2906859 C226.609943,29.846509 227.55434,28.8835364 228.970659,28.8835364 L247.855836,28.8835364 C249.272155,28.8835364 250.216551,29.846509 250.216551,31.2906859 C250.216551,32.7348628 249.272155,33.6978351 247.855836,33.6978351 L231.331929,33.6978351 L231.331929,67.3951064 L273.8215,67.3951064 L273.8215,16.8489176 C273.8215,10.1092377 268.628147,4.81429883 262.019025,4.81429883 L200.645385,4.81429883 C199.229066,4.81429883 198.284669,3.85132623 198.284669,2.40714941 C198.284669,0.962972591 199.229066,0 200.645385,0 L262.019025,0 C270.988863,0 278.542933,7.70208832 278.542933,16.8489176 L278.542933,267.172711 C278.542933,276.318978 270.988863,284.021629 262.019025,284.021629 Z M59.0134787,284.021629 L16.5239068,284.021629 C7.55351723,284.021629 0,276.318978 0,267.172711 L0,16.8489176 C0,7.70208832 7.55351723,0 16.5239068,0 L172.319003,0 C173.735323,0 174.67972,0.962972591 174.67972,2.40714941 L174.67972,96.2786428 L219.529454,96.2786428 C220.945774,96.2786428 221.890171,97.2416154 221.890171,98.6857921 C221.890171,100.129969 220.945774,101.092942 219.529454,101.092942 L87.3398599,101.092942 C85.9235407,101.092942 84.9791436,100.129969 84.9791436,98.6857921 L84.9791436,31.2906859 C84.9791436,29.846509 85.9235407,28.8835364 87.3398599,28.8835364 L143.992622,28.8835364 C145.408941,28.8835364 146.353339,29.846509 146.353339,31.2906859 L146.353339,69.8022557 C146.353339,71.2464326 145.408941,72.2094052 143.992622,72.2094052 L115.666241,72.2094052 C114.249922,72.2094052 113.305525,71.2464326 113.305525,69.8022557 L113.305525,60.1742223 C113.305525,58.7300454 114.249922,57.7670728 115.666241,57.7670728 C117.08256,57.7670728 118.026957,58.7300454 118.026957,60.1742223 L118.026957,67.3951064 L141.631906,67.3951064 L141.631906,33.697271 L89.7000227,33.697271 L89.7000227,96.2780787 L169.958287,96.2780787 L169.958287,4.81373468 L33.0472603,4.81373468 L33.0472603,28.8835364 L59.0129255,28.8835364 C60.4292443,28.8835364 61.3736415,29.846509 61.3736415,31.2906859 L61.3736415,69.8022557 C61.3736415,71.2464326 60.4292443,72.2094052 59.0129255,72.2094052 C57.5966063,72.2094052 56.6522092,71.2464326 56.6522092,69.8022557 L56.6522092,33.6978351 L30.6870975,33.6978351 C29.2707783,33.6978351 28.3263812,32.7348628 28.3263812,31.2906859 L28.3263812,4.81373468 L16.5239068,4.81373468 C9.91423343,4.81373468 4.72143237,10.1092377 4.72143237,16.8483535 L4.72143237,96.2780787 L28.3263812,96.2780787 L28.3263812,60.1736582 C28.3263812,58.7294813 29.2707783,57.7665087 30.6870975,57.7665087 C32.1034166,57.7665087 33.0478135,58.7294813 33.0478135,60.1736582 L33.0478135,96.2780787 L59.0134787,96.2780787 C60.4297978,96.2780787 61.3741949,97.2410511 61.3741949,98.685228 C61.3741949,100.129405 60.4297978,101.092377 59.0134787,101.092377 L4.72087911,101.092377 L4.72087911,154.045716 L59.0129255,154.045716 C60.4292443,154.045716 61.3736415,155.008688 61.3736415,156.452865 C61.3736415,157.897042 60.4292443,158.860014 59.0129255,158.860014 L4.72087911,158.860014 L4.72087911,267.173276 C4.72087911,273.912956 9.91423343,279.207895 16.5233535,279.207895 L56.6527624,279.207895 L56.6527624,187.742987 L33.0472603,187.742987 L33.0472603,243.10291 C33.0472603,244.547087 32.1028631,245.510059 30.6865443,245.510059 C29.2702251,245.510059 28.325828,244.547087 28.325828,243.10291 L28.325828,185.335837 C28.325828,183.891661 29.2702251,182.928688 30.6865443,182.928688 L84.9791436,182.928688 L84.9791436,129.975914 L30.6870975,129.975914 C29.2707783,129.975914 28.3263812,129.012941 28.3263812,127.568764 C28.3263812,126.124588 29.2707783,125.161615 30.6870975,125.161615 L87.3398599,125.161615 C88.756179,125.161615 89.7005761,126.124588 89.7005761,127.568764 L89.7005761,185.335837 C89.7005761,186.780014 88.756179,187.742987 87.3398599,187.742987 L61.3741949,187.742987 L61.3741949,281.614479 C61.3736415,283.058658 60.4297978,284.021629 59.0134787,284.021629 Z M191.203073,216.626523 L143.992622,216.626523 C142.576303,216.626523 141.631906,215.66355 141.631906,214.219374 L141.631906,156.452301 C141.631906,155.008124 142.576303,154.045152 143.992622,154.045152 C145.408941,154.045152 146.353339,155.008124 146.353339,156.452301 L146.353339,211.812224 L191.203073,211.812224 C192.619392,211.812224 193.56379,212.775197 193.56379,214.219374 C193.56379,215.66355 192.619392,216.626523 191.203073,216.626523 Z M115.666241,216.626523 L87.3398599,216.626523 C85.9235407,216.626523 84.9791436,215.66355 84.9791436,214.219374 C84.9791436,212.775197 85.9235407,211.812224 87.3398599,211.812224 L115.666241,211.812224 C117.08256,211.812224 118.026957,212.775197 118.026957,214.219374 C118.026404,215.66355 117.08256,216.626523 115.666241,216.626523 Z M247.855836,187.742987 C246.439516,187.742987 245.49512,186.780014 245.49512,185.335837 L245.49512,129.975914 L143.992622,129.975914 C142.576303,129.975914 141.631906,129.012941 141.631906,127.568764 C141.631906,126.124588 142.576303,125.161615 143.992622,125.161615 L247.855836,125.161615 C249.272155,125.161615 250.216551,126.124588 250.216551,127.568764 L250.216551,185.335837 C250.216551,186.780014 249.272155,187.742987 247.855836,187.742987 Z M115.666241,187.742987 C114.249922,187.742987 113.305525,186.780014 113.305525,185.335837 L113.305525,127.568764 C113.305525,126.124588 114.249922,125.161615 115.666241,125.161615 C117.08256,125.161615 118.026957,126.124588 118.026957,127.568764 L118.026957,185.335837 C118.026404,186.780014 117.08256,187.742987 115.666241,187.742987 Z M200.645385,72.2088411 C199.229066,72.2088411 198.284669,71.2458685 198.284669,69.8016916 L198.284669,31.2906859 C198.284669,29.846509 199.229066,28.8835364 200.645385,28.8835364 C202.061704,28.8835364 203.006101,29.846509 203.006101,31.2906859 L203.006101,69.8022557 C203.005548,71.2458685 202.061704,72.2088411 200.645385,72.2088411 Z" fill="#000000"></path>
                    </g>
                    <g id="zombie-(1)" transform="translate(195.445636, 136.990530)">
                        <g id="Group" transform="translate(10.316404, 77.842966)" fill="#F4516D">
                            <path d="M63.8350251,6.4323212 C74.8719277,7.82231544 89.3338768,8.62016537 98.6355601,5.18919903 C98.6355601,5.18919903 84.4282201,24.6190671 49.8913722,17.8443264 C50.6246622,16.4589881 51.5193009,15.1930098 52.610364,14.0739035 L52.610364,14.0692476 C57.1359644,12.4959807 60.8564728,9.86794342 63.8350251,6.4323212 Z" id="Shape"></path>
                            <path d="M48.0265789,41.6088264 C49.6186065,51.1864117 52.7221937,59.2042743 52.8158667,59.4565389 L24.9916972,67.0384412 L15.8600283,69.5246855 L9.89013109,71.1529766 C-12.2459853,17.4866696 10.7575344,0.276813716 10.7575344,0.276813716 C13.6015609,3.95538867 17.0497161,7.12520201 20.9489045,9.61102303 C27.0442493,13.5143504 34.2484011,15.7665305 41.9625961,15.7665305 C45.9158423,15.7665305 49.4576705,15.1748094 52.610364,14.0692476 L52.610364,14.0739035 C51.5193009,15.1930098 50.6246622,16.4589881 49.8913722,17.8443264 C47.9415717,21.5275573 47.1723805,26.0226058 47.1055302,30.6831498 C55.9508158,31.2473588 65.332967,30.9675821 72.0320277,28.4953055 C72.0320277,28.4953055 64.773818,38.4212361 48.0265789,41.6088264 Z" id="Shape"></path>
                        </g>
                        <path d="M79.8462215,204.293679 L74.9970136,205.112076 L68.6765959,206.178664 C66.7029523,195.985402 62.240516,179.654798 52.8443808,169.939676 C51.9330265,172.086854 50.9019086,174.335006 49.7420032,176.652313 L49.7420032,176.65698 C45.3595463,185.434064 39.1236199,195.226825 30.3582959,204.293679 L27.2423834,203.852448 L20.6328099,202.91441 C25.8466416,187.512087 33.1181979,161.792618 28.6688866,148.946883 L43.4121524,144.896476 L65.4003146,138.855019 C65.4007249,138.855019 84.0687197,156.707866 79.8462215,204.293679 Z" id="Shape" fill="#666666"></path>
                        <path d="M49.3934482,7.36482383 C49.4768359,8.09880544 49.5187436,8.84162005 49.5187436,9.59831514 C49.5187436,20.5655566 40.4820704,29.4540948 29.3273465,29.4540948 C27.0519281,29.4540948 24.8646017,29.0801638 22.8256627,28.3920298 C22.737571,27.6626751 22.6960908,26.9244873 22.6960908,26.1719984 C22.6960908,15.2047569 31.7374681,6.31159178 42.8874879,6.31159178 C45.1624786,6.31159178 47.3545091,6.68089599 49.3934482,7.36482383 Z" id="Shape" fill="#F4516D"></path>
                        <g id="Group" transform="translate(4.126563, 4.207729)" fill="#8BE8E8">
                            <path d="M42.6799466,214.469517 L15.291099,214.538741 C13.3319139,214.543933 11.9822809,212.510913 12.6909846,210.621965 C13.5185029,208.415454 14.6200478,205.386475 15.8312032,201.814954 L25.7509638,203.221497 L42.6799466,214.469517 Z" id="Shape"></path>
                            <path d="M90.7379252,214.469517 L69.5583935,214.469517 C67.695013,214.469517 66.1161183,213.058647 65.8454385,211.151961 C65.6224521,209.582742 65.2961303,207.527657 64.8371882,205.144191 L76.2304167,203.22193 L90.7379252,214.469517 Z" id="Shape"></path>
                            <path d="M82.2280417,50.1012374 C82.2280417,63.0556266 79.2401065,74.6320277 72.6663984,82.2886247 C69.647086,85.8004401 65.8747238,88.4867606 61.2865573,90.0953512 C58.0902784,91.2254315 54.499485,91.8302753 50.4915855,91.8302753 C43.4777611,91.8302753 36.8856451,89.9781031 31.1415468,86.7245793 C26.3810156,84.0287408 22.2053533,80.3667958 18.8551174,75.9970366 C15.3597102,71.4395075 12.7662896,66.1135929 11.3564126,60.2996497 C10.2410619,61.2653232 8.92196928,61.823441 7.51627592,61.823441 C3.4585914,61.823441 0.166926087,57.205341 0.166926087,51.5086458 C0.166926087,45.8119509 3.4585914,41.1938508 7.51627592,41.1938508 C8.71320707,41.1938508 9.84654735,41.6018392 10.8439203,42.3144127 C11.9228736,36.4065847 14.212564,30.1569637 17.4268325,24.3287431 C18.9726769,25.4679091 20.6867024,26.3916156 22.5228893,27.0293409 C24.5176353,27.7371552 26.6575523,28.1217807 28.8836519,28.1217807 C39.7966016,28.1217807 48.637409,18.9790328 48.637409,7.69813141 C48.637409,6.91979508 48.5964094,6.15573617 48.5148291,5.40076291 C48.3198727,3.60959424 47.8981648,1.88418829 47.2815005,0.262185558 C48.3424643,0.131092779 49.4122137,0.0558117772 50.4915855,0.0558117772 C55.6102338,0.0558117772 60.0532288,1.48095902 63.8615703,3.96133823 C76.6194925,12.2595544 82.2280417,32.3548228 82.2280417,50.1012374 Z" id="Shape"></path>
                        </g>
                        <path d="M33.0124957,145.221766 L24.6284285,147.730995 L19.1472814,149.374339 C-1.17657093,95.2119164 19.9436711,77.8429651 19.9436711,77.8429651 C22.5548597,81.5555464 25.7207174,84.754663 29.300683,87.2634639 C25.4126942,97.69765 21.5159916,117.885959 33.0124957,145.221766 Z" id="Shape" fill="#C63958"></path>
                        <path d="M35.2310567,88.3576636 L35.2310567,88.3622848 C30.4505651,85.7446508 26.2573946,82.1889369 22.8931114,77.9459417 C19.3830482,73.5206239 16.7787536,68.3492109 15.3629651,62.7039271 C14.2429378,63.641587 12.9183144,64.1835141 11.506727,64.1835141 C7.43202896,64.1835141 4.12656196,59.6993823 4.12656196,54.167945 C4.12656196,48.6365077 7.43202896,44.1523762 11.506727,44.1523762 C12.7086768,44.1523762 13.8467691,44.5485291 14.8483239,45.2404312 C15.9318012,39.5039858 18.2310921,33.4356627 21.4588378,27.7765154 C23.0111637,28.8826349 24.7323761,29.7795454 26.576262,30.3987705 C28.5793716,31.0860518 30.7282613,31.4595192 32.9636947,31.4595192 C43.9224016,31.4595192 52.8002777,22.5819972 52.8002777,11.6283482 C52.8002777,10.872591 52.7591064,10.130697 52.6771838,9.39762504 C52.4814102,7.65841713 52.0579339,5.98306421 51.438684,4.40811485 C52.5040965,4.280825 53.5783312,4.20772783 54.6622285,4.20772783 C59.8023389,4.20772783 64.2639633,5.59153239 68.0882725,7.99995724 C68.0882725,7.99995724 21.0672904,41.4024111 35.2310567,88.3576636 Z" id="Shape" fill="#76CECC"></path>
                        <g id="Group" transform="translate(20.632811, 145.166611)" fill="#4D4D4D">
                            <path d="M23.43918,0.297538234 C23.43918,0.297538234 20.758516,31.4228792 7.04879916,58.3684767 L0.349218005,57.4445203 C5.63405049,42.2734133 13.0046291,16.9400385 8.494728,4.28714149 L23.43918,0.297538234 Z" id="Shape"></path>
                            <path d="M55.4537407,59.6091943 L49.0472532,60.6597718 C47.0467329,50.6195279 42.5235282,34.5340761 32.9994386,24.9647951 C32.0756737,27.0797405 31.0305143,29.2941435 29.8548136,31.5766631 L37.4777438,12.9684045 C37.4777438,12.9684045 51.75494,25.5084711 55.4537407,59.6091943 Z" id="Shape"></path>
                        </g>
                        <g id="Group" transform="translate(39.202338, 33.661824)" fill="#FFFFFF">
                            <ellipse id="Oval" cx="10.0083571" cy="10.5421877" rx="9.6420872" ry="10.2220345"></ellipse>
                            <ellipse id="Oval" cx="40.4950405" cy="10.5421877" rx="6.67784643" ry="10.2220345"></ellipse>
                        </g>
                        <path d="M57.177919,68.9180104 C59.5657281,70.6784469 62.4078402,71.5313734 65.2319882,71.5313734 C69.107037,71.5313734 72.9471028,69.9231501 75.5206988,66.8469348 C76.8316063,65.2799823 76.5408715,63.0127601 74.8716269,61.7826291 C73.2033279,60.5520543 70.7876272,60.8245291 69.4771922,62.3914818 C67.6457979,64.5814879 64.2576711,64.9649052 61.9242271,63.2444082 C60.2549828,62.0138333 57.8402275,62.2867519 56.5293197,63.8532609 C55.2184121,65.4202137 55.5091472,67.6878794 57.177919,68.9180104 Z" id="Shape" fill="#000000"></path>
                        <path d="M119.149872,90.3567316 L114.297349,82.3847258 C114.28058,82.3566813 114.258781,82.3342455 114.238658,82.3096527 C114.207635,82.2613295 114.184159,82.2099863 114.150621,82.1629578 C113.256415,80.9173453 111.673424,80.4224658 110.257283,80.9466843 C104.136187,83.2122579 94.5338519,83.7942913 82.2778255,82.6681922 C86.7186699,75.0935574 89.0453656,65.125638 89.0453656,53.4150694 C89.0453656,41.3662396 86.6335675,29.6573968 82.2551875,20.4462506 C81.4284769,18.707053 79.3885307,17.9856592 77.6969603,18.8373526 C76.0066472,19.6881831 75.3065424,21.7885091 76.1336722,23.5285696 C77.4466831,26.2907486 78.5647547,29.3730674 79.4761486,32.6564449 C79.2028142,32.6275374 78.9265454,32.6085532 78.6465034,32.6085532 C73.0968104,32.6085532 68.7498723,38.3848811 68.7498723,45.7584577 C68.7498723,53.1320344 73.0968104,58.9083623 78.6465034,58.9083623 C79.8630927,58.9083623 81.0222484,58.630505 82.0895937,58.11923 C81.4339266,68.7951681 78.5010326,77.3988246 73.510585,83.1829187 C70.78353,86.3390167 67.4356038,88.6248687 63.5510702,89.9800707 C60.6437488,91.0030519 57.3750557,91.5216616 53.8359631,91.5216616 C42.4577928,91.5216616 31.8765681,86.2514313 24.8038328,77.0592691 C21.5175324,72.7947617 19.2025751,67.974108 17.9247791,62.7310593 C17.6392872,61.5596573 16.7886808,60.6216727 15.6722862,60.248895 C14.5563107,59.8752544 13.3325946,60.1203211 12.4325198,60.8956471 C11.8929779,61.3607562 11.3341518,61.5971939 10.772391,61.5971939 C8.90055393,61.5971939 6.81533159,58.8130106 6.81533159,54.8173002 C6.81533159,50.8215896 8.90055393,48.0374065 10.772391,48.0374065 C11.2373109,48.0374065 11.7072615,48.2043799 12.1705045,48.5335805 C13.1196286,49.2083771 14.3349603,49.3429912 15.4018864,48.89212 C16.4688126,48.441249 17.241024,47.4657278 17.4552477,46.2995031 C18.2773468,41.8188364 19.8452462,37.138406 22.0352746,32.5956097 C22.9060038,33.0326743 23.7981134,33.4097663 24.7048958,33.7225717 C27.1087286,34.5716763 29.6249137,35.0018377 32.1846981,35.0018377 C44.9781702,35.0018377 55.386255,24.2922461 55.386255,11.1281035 C55.386255,10.2267927 55.3380444,9.32461898 55.242042,8.44531242 C55.1908964,7.97632015 55.1259167,7.50905371 55.0475217,7.044376 C61.3153463,7.36667335 66.7178914,10.2129861 71.1210058,15.5168701 C72.3430449,16.9885653 74.4936664,17.1633048 75.9248985,15.9047487 C77.3557115,14.6466241 77.5246589,12.4332568 76.3017813,10.9606987 C70.3479559,3.78990621 62.5801463,0 53.835544,0 C52.6755498,0 51.4572837,0.0776620127 50.2142832,0.230397304 C49.1662223,0.359402536 48.2359633,0.980698638 47.6943251,1.91307425 C47.2700701,2.64352862 47.1266953,3.49953657 47.267974,4.321891 C46.673933,4.27529379 46.0761188,4.24983792 45.4762088,4.24983792 C33.7987122,4.24983792 24.1129509,13.1762234 22.5115136,24.7461375 C21.7569096,24.2585926 20.8455157,24.088599 19.9701751,24.2875001 C19.0294354,24.5006392 18.2203323,25.1137376 17.7432549,25.974923 C15.0329689,30.8650412 12.9531965,36.0140325 11.633478,41.0676723 C11.3471477,41.0387649 11.0595598,41.0240953 10.7715526,41.0240953 C4.73136693,41.0240953 0,47.0830267 0,54.8173002 C0,62.5515737 4.73178618,68.6105051 10.7715526,68.6105051 C11.3492438,68.6105051 11.9219044,68.5535529 12.4832459,68.440943 C13.7438538,72.1273 15.4698008,75.6061265 17.6292258,78.8467899 C15.1231022,81.7194214 11.3685282,87.2692349 9.39901177,96.2801857 C8.9860757,98.1695299 10.1393621,100.04593 11.9755651,100.470914 C12.2270998,100.529161 12.4790537,100.556774 12.7263961,100.556774 C14.2846533,100.556774 15.6911513,99.4492274 16.0479113,97.819188 C17.5336427,91.0216047 20.1114537,86.7454479 21.9602334,84.3905631 C30.225243,93.4248125 41.6436591,98.5358358 53.8359631,98.5358358 C55.1280128,98.5358358 56.390717,98.469823 57.6282675,98.3533302 C56.7395116,100.766461 56.1509206,103.482906 55.8629132,106.476345 C44.1782898,105.455521 34.1160651,103.201165 34.0058091,103.176141 C32.1691869,102.760218 30.3505912,103.956213 29.9460396,105.847714 C29.5419072,107.739216 30.7035782,109.609144 32.5410388,110.025931 C33.0529118,110.141992 45.2372509,112.876126 58.8486297,113.734292 C63.4093723,114.026387 67.5831708,114.069964 71.354933,113.86718 C68.1700849,115.501534 64.1983526,117.002568 59.3726603,117.924157 C50.2402751,119.673278 39.925258,118.972594 28.7139391,115.841089 C26.8970205,115.334561 25.0260217,116.438224 24.533433,118.306858 C24.0408443,120.175924 25.1136396,122.102373 26.9293007,122.609334 C34.7163944,124.783439 42.1484053,125.873296 49.1427457,125.873296 C51.9222036,125.873296 54.6308127,125.69683 57.2668958,125.352529 C58.2415926,130.109758 59.4728548,134.298761 60.4031139,137.154566 L23.2623445,147.308443 C17.4594399,132.474135 14.6485401,119.207738 14.9046862,107.840608 C14.9482856,105.904235 13.4587812,104.298357 11.5773019,104.253486 C9.68450362,104.20128 8.13546933,105.742439 8.09187,107.677949 C7.79757444,120.759252 11.1693965,135.957708 18.1146877,152.853079 C18.6584218,154.175922 19.9114836,154.993962 21.2517442,154.993962 C21.5418475,154.993962 21.8365622,154.955562 22.1287617,154.875743 L24.8776162,154.124579 C26.5281029,163.97169 23.3499624,181.619951 15.888606,203.549978 C14.883725,206.49984 13.8377601,209.419069 12.780476,212.225256 C12.0401257,214.190968 12.2895642,216.402178 13.4487198,218.139218 C14.6049408,219.872376 16.5136696,220.905712 18.556131,220.905712 C18.5611617,220.905712 18.5666117,220.905712 18.5716423,220.905712 L46.0170084,220.836679 C47.5274738,220.832796 48.8555769,219.8055 49.2789937,218.313526 C49.7028294,216.821553 49.1213652,215.21999 47.8502767,214.379514 L34.3734688,205.468661 C41.7212156,197.295597 47.9244793,187.942933 52.8868389,177.574192 C59.8451262,187.186592 63.3330735,200.822747 64.8686926,208.715365 C65.2493484,210.682802 65.5792779,212.639454 65.850097,214.531386 C66.3636468,218.125843 69.4122469,220.836679 72.9416973,220.836679 L94.1649344,220.836679 C95.6318006,220.836679 96.9339118,219.87065 97.3971548,218.438648 C97.8603976,217.006647 97.3820626,215.429246 96.2086535,214.524052 L83.1829312,204.474156 C84.0792329,192.939621 83.7312766,182.146759 82.1470276,172.366954 C81.83764,170.4569 80.0877972,169.167279 78.2260213,169.484399 C76.3696957,169.802813 75.1157954,171.609318 75.4256023,173.519803 C76.8803109,182.504004 77.2219789,192.442153 76.4493483,203.093066 L70.8623443,204.031051 C66.9815837,186.400048 60.9808051,176.200437 56.0368914,170.449134 C58.4331783,164.548115 59.9511901,159.520794 60.8261113,156.208509 C61.3199578,154.339444 60.2488393,152.412994 58.4323398,151.903876 C56.617098,151.396053 54.7444226,152.498422 54.2501569,154.367488 C53.3320554,157.842863 51.6597691,163.334862 48.9083991,169.763982 C43.6056293,182.173077 36.5073213,193.140248 27.8050605,202.39756 L23.6656384,201.813369 C29.0006886,185.37793 33.9119028,165.280727 31.4778857,152.318505 L63.7279828,143.501278 C65.8052399,146.103819 70.1584663,152.506188 73.2619849,163.604953 C73.6912707,165.14223 75.0541694,166.142775 76.5344509,166.142775 C76.8467731,166.142775 77.1641258,166.098335 77.4785443,166.005141 C79.2866593,165.469273 80.3313665,163.526428 79.8106899,161.665129 C75.77272,147.224309 69.7342113,139.757106 67.7902677,137.628304 C67.0692016,135.645334 65.2791133,130.415229 63.969037,124.067654 C73.8153611,121.537598 80.2655483,116.887801 83.7983526,113.648864 L86.3463987,117.835709 C86.9932619,118.897953 88.1029491,119.481712 89.2373704,119.481712 C89.8553072,119.481712 90.4807899,119.308698 91.0433892,118.946276 C92.638119,117.918117 93.1210654,115.754367 92.1224728,114.11311 L87.2703692,106.141104 C87.2531812,106.112628 87.2309622,106.08933 87.2104202,106.063874 C87.1793976,106.015982 87.1563403,105.96507 87.1232215,105.918904 C86.2281773,104.672861 84.6447666,104.177981 83.229465,104.703062 C78.4645602,106.467716 71.3964361,107.216292 62.6589607,106.900897 C62.8836649,104.72593 63.304147,102.778339 63.9107648,101.066755 C68.353286,101.800229 72.4742621,102.127704 76.2762087,102.127704 C94.7313066,102.127704 105.774097,94.5655812 110.832459,89.9028401 L113.374636,94.0793307 C114.02108,95.1420058 115.130348,95.7253339 116.26477,95.7253339 C116.882706,95.7253339 117.508189,95.5523202 118.070788,95.1898975 C119.666776,94.1617387 120.148884,91.9979886 119.149872,90.3567316 Z M37.9595146,26.9038471 L38.6218892,25.4058331 C39.4012274,23.6429054 38.6445275,21.5637207 36.9315764,20.7616447 C35.2198831,19.9604316 33.1983829,20.7383461 32.4190445,22.5012738 L30.0567148,27.8444203 C29.7364275,27.8008432 29.4173975,27.7469112 29.1004639,27.6834872 C29.2283274,22.64538 31.5089084,18.1491809 35.0333281,15.1419352 C37.2824673,16.1679367 41.5023804,18.4757928 44.3849674,22.3670911 C42.6426707,24.3677508 40.4442578,25.9373864 37.9595146,26.9038471 Z M48.5591852,11.5634422 C48.5222935,13.0476496 48.2992661,14.4839654 47.9114835,15.8495224 C46.2538701,14.0788285 44.4595896,12.6416498 42.7625689,11.4987239 C43.6458748,11.34642 44.5518188,11.2631491 45.4762088,11.2631491 C46.5200775,11.2635806 47.5505313,11.3666985 48.5591852,11.5634422 Z M83.939212,213.822505 L72.9416973,213.822505 C72.7643655,213.822505 72.6172178,213.691774 72.5912259,213.510562 C72.4696506,212.657143 72.3304683,211.78776 72.186255,210.914494 L78.7429251,209.813419 L83.939212,213.822505 Z M34.4447371,213.851844 L19.4603981,213.889812 C20.1093576,212.150183 20.7516094,210.369997 21.3829614,208.571258 L27.8356639,209.482061 L34.4447371,213.851844 Z M78.6460842,51.8941884 C77.3888303,51.8941884 75.5639463,49.5039241 75.5639463,45.7580263 C75.5639463,42.0121287 77.3892495,39.6218644 78.6460842,39.6218644 C79.902919,39.6218644 81.7282223,42.0125602 81.7282223,45.7580263 C81.7282223,49.5034926 79.9025,51.8941884 78.6460842,51.8941884 Z M97.9278929,90.3291183 C90.0238354,94.2717598 80.457553,95.7796973 69.9404697,94.7869178 C72.6729746,93.336364 75.1535256,91.4703184 77.3552922,89.2021562 C85.3297795,90.1375521 92.3383734,90.4447484 98.3345404,90.123314 C98.2008079,90.1919156 98.0649792,90.2609484 97.9278929,90.3291183 Z" id="Shape" fill="#000000"></path>
                        <path d="M31.6089939,53.5545267 C30.4826237,55.2683433 30.83365,57.6608102 32.3933386,58.898488 C36.2747731,61.9790249 40.304933,63.1159178 44.068073,63.1159178 C50.3552596,63.1159178 55.8996763,59.9435441 58.770892,57.359868 C58.7751779,57.3561004 58.7764638,57.3523328 58.7807497,57.3485649 C61.9258434,54.7253286 63.9617106,50.575246 63.9617106,45.9118191 C63.9617106,37.9968977 58.1018418,31.5579589 50.8987291,31.5579589 C43.6956163,31.5579589 37.8357476,37.9968977 37.8357476,45.9118191 C37.8357476,49.3474583 38.9411164,52.5047613 40.7811116,54.978704 C39.3607193,54.5557837 37.9107531,53.8333339 36.4732165,52.6922025 C34.9126708,51.4545246 32.7349357,51.8407103 31.6089939,53.5545267 Z M50.8987291,39.2138533 C54.2602673,39.2138533 56.9943299,42.2185658 56.9943299,45.9118191 C56.9943299,49.6050723 54.2598388,52.6097848 50.8987291,52.6097848 C47.5376193,52.6097848 44.8031282,49.6050723 44.8031282,45.9118191 C44.8031282,42.2185658 47.5371908,39.2138533 50.8987291,39.2138533 Z" id="Shape" fill="#000000"></path>
                    </g>
                </g>
            </g>
        </g>
    </g>
</svg>
