<?xml version="1.0" encoding="UTF-8"?>
<svg width="900px" height="650px" viewBox="0 0 900 650" version="1.1" xmlns="http://www.w3.org/2000/svg" xmlns:xlink="http://www.w3.org/1999/xlink">
    <!-- Generator: Sketch 47 (45396) - http://www.bohemiancoding.com/sketch -->
    <title>harambe</title>
    <desc>Created with Sketch.</desc>
    <defs></defs>
    <g id="Page-1" stroke="none" stroke-width="1" fill="none" fill-rule="evenodd">
        <g id="harambe">
            <g>
                <rect id="Rectangle" fill-opacity="0.780000031" fill="#052F6E" fill-rule="nonzero" x="0" y="0" width="900" height="650"></rect>
                <g id="gorilla" transform="translate(196.000000, 69.000000)">
                    <g>
                        <ellipse id="Oval" fill="#E16B5A" fill-rule="nonzero" cx="255" cy="256" rx="255" ry="256"></ellipse>
                        <path d="M475.057031,385.288 C474.806016,384.616 474.551016,383.952 474.268125,383.32 C473.953359,382.488 473.638594,381.664 473.283984,380.884 C472.969219,380.044 472.650469,379.212 472.295859,378.432 C471.981094,377.596 471.662344,376.76 471.307734,375.976 C470.988984,375.136 470.670234,374.3 470.311641,373.508 C469.996875,372.676 469.682109,371.852 469.3275,371.068 C469.012734,370.232 468.693984,369.404 468.339375,368.616 C468.024609,367.78 467.705859,366.952 467.35125,366.164 C467.0325,365.324 466.717734,364.488 466.355156,363.696 C466.040391,362.864 465.729609,362.04 465.371016,361.26 C465.060234,360.424 464.741484,359.588 464.382891,358.808 C464.064141,357.964 463.745391,357.128 463.386797,356.336 C463.076016,355.504 462.757266,354.68 462.406641,353.896 C462.087891,353.056 461.769141,352.22 461.410547,351.428 C461.091797,350.6 460.781016,349.78 460.422422,348.996 C460.111641,348.16 459.792891,347.328 459.434297,346.54 C459.123516,345.704 458.804766,344.872 458.446172,344.088 C458.135391,343.244 457.808672,342.408 457.450078,341.62 C457.139297,340.784 456.820547,339.964 456.469922,339.184 C456.151172,338.348 455.832422,337.516 455.481797,336.728 C455.163047,335.892 454.852266,335.06 454.493672,334.272 C454.174922,333.436 453.860156,332.6 453.497578,331.812 C453.178828,330.98 452.872031,330.156 452.509453,329.372 C452.202656,328.536 451.883906,327.704 451.521328,326.916 C451.210547,326.072 450.887812,325.236 450.525234,324.448 C450.218437,323.612 449.903672,322.792 449.549062,322.012 C449.230312,321.172 448.911562,320.336 448.552969,319.544 C448.238203,318.712 447.923437,317.888 447.568828,317.108 C447.254062,316.272 446.935312,315.436 446.580703,314.656 C446.265937,313.82 445.947187,312.988 445.592578,312.2 C445.273828,311.36 444.955078,310.524 444.596484,309.732 C444.281719,308.9 443.966953,308.08 443.612344,307.292 C443.297578,306.456 442.978828,305.628 442.624219,304.844 C442.309453,304.008 441.998672,303.176 441.636094,302.388 C441.317344,301.548 441.002578,300.712 440.64,299.92 C440.325234,299.092 440.014453,298.264 439.655859,297.484 C439.345078,296.648 439.026328,295.812 438.675703,295.032 C438.356953,294.196 438.038203,293.364 437.687578,292.576 C437.368828,291.732 437.042109,290.896 436.691484,290.104 C436.372734,289.268 436.053984,288.44 435.703359,287.656 C435.384609,286.824 435.073828,286 434.715234,285.22 C434.404453,284.384 434.085703,283.552 433.727109,282.764 C433.416328,281.928 433.097578,281.1 432.738984,280.312 C432.428203,279.468 432.101484,278.632 431.742891,277.844 C431.432109,277.016 431.113359,276.192 430.762734,275.408 C430.443984,274.572 430.129219,273.74 429.774609,272.956 C429.459844,272.12 429.141094,271.284 428.786484,270.5 C428.471719,269.66 428.148984,268.824 427.790391,268.036 C427.475625,267.204 427.160859,266.38 426.80625,265.6 C426.491484,264.764 426.172734,263.928 425.818125,263.14 C425.503359,262.304 425.184609,261.476 424.83,260.688 C424.515234,259.852 424.196484,259.02 423.841875,258.236 C423.523125,257.388 423.196406,256.548 422.837812,255.748 C422.527031,254.924 422.212266,254.104 421.861641,253.328 C421.546875,252.492 421.228125,251.66 420.873516,250.872 C420.55875,250.036 420.24,249.208 419.885391,248.42 C419.566641,247.58 419.247891,246.744 418.889297,245.952 C418.574531,245.12 418.259766,244.296 417.905156,243.512 C417.590391,242.676 417.271641,241.844 416.917031,241.06 C416.602266,240.224 416.283516,239.392 415.932891,238.604 C415.614141,237.764 415.295391,236.928 414.936797,236.136 C414.618047,235.304 414.307266,234.48 413.948672,233.696 C413.637891,232.86 413.319141,232.028 412.960547,231.244 C412.649766,230.408 412.331016,229.576 411.972422,228.788 C411.661641,227.952 411.342891,227.12 410.984297,226.332 C410.665547,225.484 410.338828,224.644 409.980234,223.844 C409.669453,223.02 409.358672,222.2 409.008047,221.428 C408.689297,220.592 408.378516,219.76 408.019922,218.972 C407.701172,218.136 407.390391,217.304 407.031797,216.516 C406.721016,215.676 406.398281,214.84 406.035703,214.048 C405.724922,213.216 405.410156,212.392 405.047578,211.612 C404.740781,210.776 404.422031,209.944 404.067422,209.156 C403.752656,208.32 403.433906,207.488 403.079297,206.7 C402.764531,205.86 402.441797,205.024 402.083203,204.232 C401.768437,203.4 401.453672,202.58 401.099062,201.796 C400.784297,200.96 400.465547,200.128 400.110937,199.34 C399.796172,198.504 399.477422,197.672 399.122812,196.884 C398.808047,196.044 398.485312,195.208 398.126719,194.42 C397.811953,193.584 397.497187,192.764 397.142578,191.98 C396.823828,191.136 396.501094,190.3 396.146484,189.508 C395.831719,188.676 395.524922,187.852 395.162344,187.068 C394.851562,186.232 394.536797,185.4 394.174219,184.616 C393.855469,183.776 393.540703,182.94 393.178125,182.148 C392.871328,181.316 392.552578,180.492 392.201953,179.708 C391.883203,178.872 391.564453,178.04 391.213828,177.256 C386.014219,163.42 375.236484,156.232 364.538437,156.232 C363.299297,156.232 362.155781,156.316 361.060078,156.456 C359.346797,156.636 357.729141,156.896 356.286797,157.352 C356.115469,157.048 355.932187,156.768 355.760859,156.468 C323.630859,100.652 271.327969,96 255,96 C254.242969,96 253.382344,96.016 252.473906,96.04 C252.354375,96.044 252.242813,96.048 252.123281,96.052 C251.175,96.08 250.158984,96.132 249.063281,96.188 C249.051328,96.192 249.039375,96.192 249.023438,96.192 L249.027422,96.192 C228.225,97.456 182.583984,106.32 153.677344,157.112 C151.294688,156.368 148.541484,156 145.429688,156 C130.583906,156 115.546875,169.744 115.546875,196 C115.546875,210.272 115.550859,225.708 120.057188,235.592 C120.36,236.444 120.686719,237.264 121.045313,238.044 C121.348125,238.9 121.678828,239.728 122.041406,240.516 C122.344219,241.36 122.666953,242.172 123.025547,242.952 C123.224766,243.516 123.447891,244.044 123.671016,244.58 C118.734375,274.664 122.129063,304.5 133.265391,330.984 C133.596094,331.804 133.910859,332.628 134.253516,333.436 C134.584219,334.264 134.906953,335.1 135.253594,335.912 C135.576328,336.724 135.891094,337.536 136.229766,338.34 C136.560469,339.16 136.875234,339.984 137.217891,340.796 C137.548594,341.628 137.875312,342.46 138.217969,343.284 C138.544687,344.088 138.855469,344.908 139.194141,345.7 C139.524844,346.528 139.847578,347.36 140.194219,348.18 C140.516953,348.992 140.831719,349.804 141.170391,350.608 C141.501094,351.428 141.815859,352.248 142.158516,353.06 C142.489219,353.88 142.803984,354.7 143.146641,355.512 C143.477344,356.34 143.800078,357.172 144.146719,357.992 C144.469453,358.804 144.784219,359.616 145.122891,360.416 C145.453594,361.236 145.768359,362.064 146.111016,362.868 C146.441719,363.688 146.756484,364.512 147.099141,365.324 C147.429844,366.152 147.752578,366.984 148.099219,367.804 C148.421953,368.616 148.736719,369.428 149.075391,370.232 C149.406094,371.052 149.720859,371.872 150.063516,372.68 C150.394219,373.5 150.708984,374.324 151.051641,375.136 C151.386328,375.976 151.717031,376.816 152.063672,377.648 C152.382422,378.448 152.697187,379.252 153.027891,380.052 C153.358594,380.872 153.673359,381.692 154.016016,382.504 C154.346719,383.324 154.661484,384.148 155.004141,384.96 C155.334844,385.78 155.649609,386.604 155.992266,387.416 C156.322969,388.244 156.645703,389.072 156.992344,389.892 C157.315078,390.704 157.629844,391.512 157.968516,392.316 C158.299219,393.136 158.613984,393.96 158.956641,394.772 C159.287344,395.592 159.602109,396.412 159.944766,397.224 C160.275469,398.052 160.598203,398.888 160.944844,399.708 C161.267578,400.512 161.582344,401.324 161.921016,402.128 C162.251719,402.948 162.566484,403.772 162.909141,404.58 C163.239844,405.4 163.554609,406.228 163.897266,407.04 C164.231953,407.876 164.562656,408.72 164.909297,409.548 C165.228047,410.352 165.538828,411.148 165.873516,411.952 C166.204219,412.772 166.518984,413.596 166.861641,414.408 C167.192344,415.228 167.507109,416.048 167.849766,416.86 C168.180469,417.68 168.495234,418.504 168.837891,419.312 C169.168594,420.14 169.491328,420.972 169.837969,421.792 C170.160703,422.604 170.475469,423.412 170.814141,424.216 C171.144844,425.036 171.459609,425.864 171.802266,426.672 C172.132969,427.488 172.447734,428.312 172.790391,429.124 C173.121094,429.952 173.443828,430.784 173.790469,431.604 C174.113203,432.416 174.427969,433.228 174.766641,434.032 C175.097344,434.852 175.412109,435.672 175.754766,436.48 C176.085469,437.3 176.400234,438.124 176.742891,438.936 C177.073594,439.764 177.396328,440.596 177.742969,441.416 C178.069687,442.24 178.392422,443.06 178.735078,443.872 C179.061797,444.684 179.376562,445.496 179.71125,446.292 C180.041953,447.112 180.356719,447.936 180.699375,448.748 C181.030078,449.564 181.344844,450.392 181.6875,451.204 C182.018203,452.032 182.340937,452.86 182.687578,453.68 C183.010312,454.492 183.325078,455.304 183.66375,456.104 C183.994453,456.924 184.309219,457.748 184.651875,458.56 C184.982578,459.38 185.297344,460.2 185.64,461.012 C185.970703,461.84 186.293437,462.676 186.640078,463.496 C186.962812,464.304 187.277578,465.112 187.61625,465.916 C187.946953,466.736 188.261719,467.556 188.604375,468.368 C188.935078,469.188 189.249844,470.016 189.5925,470.828 C189.923203,471.652 190.245937,472.484 190.592578,473.304 C190.915312,474.116 191.230078,474.924 191.56875,475.724 C191.899453,476.56 192.226172,477.388 192.568828,478.216 C192.895547,479.02 193.206328,479.84 193.545,480.636 C193.875703,481.456 194.190469,482.28 194.533125,483.088 C194.863828,483.916 195.186562,484.748 195.533203,485.568 C195.855937,486.376 196.170703,487.188 196.509375,487.992 C196.840078,488.812 197.154844,489.636 197.4975,490.448 C197.828203,491.268 198.142969,492.092 198.485625,492.9 C198.816328,493.728 199.139062,494.56 199.485703,495.38 C199.808437,496.192 200.123203,497.004 200.461875,497.804 C200.792578,498.624 201.107344,499.448 201.45,500.26 C201.780703,501.08 202.095469,501.9 202.438125,502.712 C202.768828,503.54 203.091562,504.368 203.438203,505.188 C203.633437,505.68 203.832656,506.172 204.031875,506.664 C220.51125,510.236 237.548438,512 255,512 C348.84,512 430.786641,461.08 475.057031,385.288 Z" id="Shape" fill="#D16354" fill-rule="nonzero"></path>
                        <path d="M255,416 C216.052734,416 178.930313,397.328 153.171328,364.764 C126.372422,330.896 115.973203,286.428 124.125234,241.664 C115.546875,233.188 115.546875,213.696 115.546875,196 C115.546875,169.744 130.583906,156 145.429688,156 C148.541484,156 151.294688,156.372 153.677344,157.112 C185.799375,100.68 238.588359,96 255,96 C271.411641,96 324.200625,100.68 356.322656,157.112 C358.701328,156.368 361.458516,156 364.570312,156 C379.420078,156 394.453125,169.744 394.453125,196 C394.453125,213.696 394.453125,233.188 385.87875,241.664 C394.026797,286.428 383.635547,330.908 356.828672,364.764 C331.069687,397.328 293.947266,416 255,416 Z" id="Shape" fill="#242424" fill-rule="nonzero"></path>
                        <path d="M255,382 C203.756953,382 169.335937,337.532 169.335937,296 C169.335937,282.044 172.603125,271.408 179.619609,262.532 L182.352891,259.08 L178.663359,256.684 C171.459609,252.016 159.378984,240.524 159.378984,216 C159.378984,192.368 182.428594,180 205.199297,180 L304.808672,180 C327.579375,180 350.628984,192.368 350.628984,216 C350.628984,240.524 338.544375,252.016 331.344609,256.684 L327.651094,259.08 L330.388359,262.532 C337.404844,271.408 340.672031,282.044 340.672031,296 C340.664062,337.532 306.243047,382 255,382 Z" id="Shape" fill="#B3B3B3" fill-rule="nonzero"></path>
                        <g id="Group" transform="translate(139.453125, 96.000000)" fill-rule="nonzero" fill="#1A1A1A">
                            <path d="M204.916406,61.112 C207.295078,60.368 210.052266,60 213.164062,60 C214.223906,60 215.28375,60.084 216.339609,60.232 C184.177734,4.652 131.874844,0 115.546875,0 C113.905313,0 111.885234,0.052 109.570312,0.192 C130.380703,1.46 176.009766,10.328 204.916406,61.112 Z" id="Shape"></path>
                            <path d="M255,100 C255,73.744 239.966953,60 225.117188,60 C222.80625,60 220.762266,60.272 218.849766,60.684 C231.615703,63.74 243.046875,77.108 243.046875,100 C243.046875,117.696 243.046875,137.188 234.4725,145.664 C242.620547,190.428 232.229297,234.908 205.422422,268.764 C180.98625,299.656 146.326172,318.016 109.570312,319.82 C111.558516,319.916 113.550703,320 115.546875,320 C154.494141,320 191.616562,301.328 217.375547,268.764 C244.182422,234.896 254.573672,190.428 246.425625,145.664 C255,137.188 255,117.696 255,100 Z" id="Shape"></path>
                            <path d="M0.290859375,60.684 C0.952265625,60.824 1.66148438,60.928 2.27507812,61.112 C2.44640625,60.808 2.6296875,60.528 2.80101562,60.224 C1.9603125,60.34 1.11960937,60.484 0.290859375,60.684 Z" id="Shape"></path>
                        </g>
                        <path d="M274.921875,286 C269.415469,286 264.960938,281.528 264.960938,276 C264.960938,271.508 259.474453,266 255,266 C250.525547,266 245.039062,271.508 245.039062,276 C245.039062,281.528 240.584531,286 235.078125,286 C229.571719,286 225.117188,281.528 225.117188,276 C225.117188,260.58 239.640234,246 255,246 C270.359766,246 284.882812,260.58 284.882812,276 C284.882812,281.528 280.428281,286 274.921875,286 Z" id="Shape" fill="#242424" fill-rule="nonzero"></path>
                        <path d="M304.804688,236 C293.82375,236 284.882812,227.036 284.882812,216 C284.882812,204.964 293.82375,196 304.804688,196 C315.797578,196 324.726562,204.964 324.726562,216 C324.726562,227.036 315.797578,236 304.804688,236 Z" id="Shape" fill="#F5F5F5" fill-rule="nonzero"></path>
                        <path d="M304.804688,226 C299.318203,226 294.84375,221.516 294.84375,216 C294.84375,210.484 299.318203,206 304.804688,206 C310.311094,206 314.765625,210.484 314.765625,216 C314.765625,221.516 310.311094,226 304.804688,226 Z" id="Shape" fill="#242424" fill-rule="nonzero"></path>
                        <path d="M205.195312,236 C194.202422,236 185.273438,227.036 185.273438,216 C185.273438,204.964 194.202422,196 205.195312,196 C216.17625,196 225.117188,204.964 225.117188,216 C225.117188,227.036 216.17625,236 205.195312,236 Z" id="Shape" fill="#F5F5F5" fill-rule="nonzero"></path>
                        <g id="Group" transform="translate(195.234375, 206.000000)" fill-rule="nonzero" fill="#242424">
                            <path d="M9.95296875,20 C4.46648437,20 0,15.516 0,10 C0,4.484 4.46648438,0 9.95296875,0 C15.459375,0 19.921875,4.484 19.921875,10 C19.921875,15.516 15.4553906,20 9.95296875,20 Z" id="Shape"></path>
                            <path d="M99.609375,120 L19.921875,120 C14.4154688,120 9.9609375,115.528 9.9609375,110 C9.9609375,104.472 14.4154688,100 19.921875,100 L99.609375,100 C105.115781,100 109.570312,104.472 109.570312,110 C109.570312,115.528 105.115781,120 99.609375,120 Z" id="Shape"></path>
                        </g>
                    </g>
                </g>
            </g>
        </g>
    </g>
</svg>
