<?xml version="1.0" encoding="UTF-8"?>
<svg width="900px" height="650px" viewBox="0 0 900 650" version="1.1" xmlns="http://www.w3.org/2000/svg" xmlns:xlink="http://www.w3.org/1999/xlink">
    <!-- Generator: Sketch 47 (45396) - http://www.bohemiancoding.com/sketch -->
    <title>grink</title>
    <desc>Created with Sketch.</desc>
    <defs></defs>
    <g id="Page-1" stroke="none" stroke-width="1" fill="none" fill-rule="evenodd">
        <g id="grink">
            <g>
                <rect id="Rectangle" fill-opacity="0.780000031" fill="#000000" fill-rule="nonzero" x="0" y="0" width="900" height="650"></rect>
                <g id="credit-card" transform="translate(195.000000, 70.000000)" fill-rule="nonzero">
                    <ellipse id="Oval" fill="#006775" cx="255" cy="255.947" rx="254.947207" ry="255.947"></ellipse>
                    <path d="M507.260742,293.655 L320.808926,106.472 C230.376563,37.499 80.5531055,148.749 209.062148,270.699 L124.942031,394.414 L241.758926,511.689 C246.208477,511.897 250.553438,512 255.002988,512 C383.097656,512 489.050156,417.162 507.260742,293.655 Z" id="Shape" fill="#055661"></path>
                    <path d="M384.338789,377.17 C384.338789,389.532 374.61293,399.607 362.610996,399.607 L138.703066,399.607 C126.804727,399.607 116.975273,389.531 116.975273,377.17 L116.975273,256.779 C116.975273,244.417 126.701133,234.342 138.703066,234.342 L362.61,234.342 C374.50834,234.342 384.337793,244.418 384.337793,256.779 L384.337793,377.17 L384.338789,377.17 Z" id="Shape" fill="#EBECEC"></path>
                    <path d="M384.338789,377.17 C384.338789,389.532 374.61293,399.607 362.610996,399.607 L138.703066,399.607 C133.426758,399.607 128.563828,397.634 124.837441,394.31 L379.166074,242.34 C382.373496,246.287 384.339785,251.273 384.339785,256.779 L384.339785,377.17 L384.338789,377.17 Z" id="Shape" fill="#E3E3E3"></path>
                    <g id="Group" transform="translate(116.542969, 270.000000)" fill="#004F59">
                        <rect id="Rectangle-path" x="0.532910156" y="0.596" width="267.256934" height="28.357"></rect>
                        <path d="M19.2624609,47.649 L135.768574,47.649 L135.768574,57.932 L19.2624609,57.932 L19.2624609,47.649 Z M19.2624609,87.434 L135.768574,87.434 L135.768574,97.717 L19.2624609,97.717 L19.2624609,87.434 Z M19.2624609,67.49 L135.768574,67.49 L135.768574,77.773 L19.2624609,77.773 L19.2624609,67.49 Z" id="Shape"></path>
                        <ellipse id="Oval" cx="212.5425" cy="72.681" rx="20.3840625" ry="20.464"></ellipse>
                    </g>
                    <path d="M284.28416,126.208 C278.489883,123.715 269.591777,121.43 258.003223,121.326 L258.003223,109.9 L243.517031,109.9 L243.517031,122.677 C224.89207,126.52 214.132266,138.155 214.132266,152.593 C214.132266,166.304 225.307441,176.277 243.517031,183.236 L243.517031,214.71 C233.687578,214.606 223.547344,212.009 217.236094,208.685 L212.476758,226.032 C218.374629,229.148 230.893535,232.057 243.31084,232.057 L243.518027,232.057 L243.518027,234.446 L258.004219,234.446 L258.004219,230.811 C277.973906,226.968 289.044492,215.022 289.044492,199.649 C289.044492,185.522 280.041797,175.55 259.969512,167.863 C259.245352,167.552 258.623789,167.344 258.004219,167.032 L258.004219,138.675 C267.730078,138.883 274.972676,141.376 279.215039,143.246 L284.285156,126.315 L284.285156,126.208 L284.28416,126.208 L284.28416,126.208 Z M250.759629,77.283 C305.49498,77.283 349.779316,121.741 349.779316,176.691 C349.779316,198.193 342.950098,218.138 331.362539,234.446 L308.289023,234.446 C322.981406,219.696 332.087695,199.232 332.087695,176.691 C332.087695,131.609 295.666523,95.045 250.760625,95.045 C205.854727,95.045 169.433555,131.609 169.433555,176.691 C169.433555,199.232 178.538848,219.591 193.232227,234.446 L170.055117,234.446 C158.466563,218.138 151.63834,198.298 151.63834,176.691 C151.63834,121.845 195.922676,77.283 250.658027,77.283 L250.759629,77.283 Z M258.003223,189.987 C262.556367,193.103 264.728848,196.635 264.728848,201.206 C264.728848,205.777 262.452773,209.516 258.003223,211.906 L258.003223,190.093 L258.003223,189.987 Z M243.517031,159.759 C239.998828,157.162 238.446914,154.358 238.446914,150.514 C238.446914,147.294 240.102422,144.178 243.517031,141.893 L243.517031,159.863 L243.517031,159.759 Z" id="Shape" fill="#FFD630"></path>
                </g>
            </g>
        </g>
    </g>
</svg>
