<?xml version="1.0" encoding="UTF-8"?>
<svg width="900px" height="650px" viewBox="0 0 900 650" version="1.1" xmlns="http://www.w3.org/2000/svg" xmlns:xlink="http://www.w3.org/1999/xlink">
    <!-- Generator: Sketch 47 (45396) - http://www.bohemiancoding.com/sketch -->
    <title>portfolio</title>
    <desc>Created with Sketch.</desc>
    <defs>
        <linearGradient x1="53.0062178%" y1="68.3191869%" x2="67.6395458%" y2="124.931807%" id="linearGradient-1">
            <stop stop-color="#B3ADAD" offset="0%"></stop>
            <stop stop-color="#4A4A4A" offset="100%"></stop>
        </linearGradient>
    </defs>
    <g id="Page-1" stroke="none" stroke-width="1" fill="none" fill-rule="evenodd">
        <g id="portfolio">
            <g>
                <rect id="Rectangle" fill-opacity="0.780000031" fill="#E61313" fill-rule="nonzero" x="0" y="0" width="900" height="650"></rect>
                <g id="Group-2" transform="translate(196.000000, 69.000000)" fill-rule="nonzero">
                    <path
                        d="M254.927337,510.847171 C294.298649,510.847171 331.580402,501.872609 364.850553,485.851558 C450.272429,444.717144 509.249145,357.131051 509.249145,255.726962 C509.249145,114.827959 395.385394,0.606751892 254.927337,0.606751892 C114.46928,0.606751892 0.605528116,114.827959 0.605528116,255.726962 C0.605528116,396.625964 114.46928,510.847171 254.927337,510.847171 Z"
                        id="Oval"
                        fill="url(#linearGradient-1)"></path>
                    <path
                        d="M366.770867,91.4933266 L144.554358,91.4933266 C135.316031,91.4933266 127.766432,99.1927412 127.766432,108.614395 L127.766432,404.43403 C127.766432,413.855683 135.316031,421.555098 144.554358,421.555098 L318.195152,421.555098 L318.195152,354.793065 L383.658128,354.793065 L383.658128,108.614395 C383.558793,99.1927412 376.10853,91.4933266 366.770867,91.4933266 Z"
                        id="Shape"
                        fill="#FFFFFF"></path>
                    <polygon id="Shape" fill="#ACB3BA" points="319.292732 421.555098 383.658128 356.180544 319.292732 356.180544"></polygon>
                    <rect id="Rectangle-path" fill="#50E3C2" transform="translate(188.992053, 302.764753) rotate(-135.000000) translate(-188.992053, -302.764753) " x="179.572727" y="260.510468" width="18.8386525" height="84.5085695"></rect>
                    <ellipse id="Oval" fill="#50E3C2" cx="258.852055" cy="231.01219" rx="102.827645" ry="104.439836"></ellipse>
                    <ellipse id="Oval" fill="#FFFFFF" cx="258.852055" cy="232.606694" rx="80.8492168" ry="82.1168175"></ellipse>
                    <path
                        d="M111.063436,408.116539 L84.4815896,381.117926 C83.5855727,380.207859 83.5855727,378.691085 84.4815896,377.781018 L158.452795,302.650049 C159.348815,301.739984 160.842175,301.739984 161.738192,302.650049 L188.320041,329.648661 C189.216058,330.558728 189.216058,332.075503 188.320041,332.985569 L114.348833,408.116539 C113.452816,409.026603 111.959453,409.026603 111.063436,408.116539 Z"
                        id="Shape"
                        fill="#FB7E14"></path>
                    <path
                        d="M283.91148,302.868759 C282.71734,305.791537 280.52808,308.21039 278.239309,310.326884 C277.841262,310.629242 277.542727,311.032384 277.144679,311.33474 C273.661769,312.241809 270.079346,312.846523 266.39741,313.249665 C264.10864,313.55202 261.919379,313.652806 259.630609,313.652806 L259.531099,313.652806 C258.336956,313.652806 257.242326,313.652806 256.048186,313.652806 L255.948674,313.652806 C253.659903,313.652806 251.371133,313.451234 249.181875,313.249665 C246.196522,312.947309 243.211169,312.443381 240.225816,311.737881 C239.031674,307.504892 239.031674,302.868759 239.031674,298.434196 L239.031674,296.418487 C239.031674,287.045435 239.031674,277.672385 239.131186,268.400118 C239.131186,266.485196 239.131186,264.671057 239.628746,262.856918 C239.728256,262.453777 239.827769,262.151418 240.026791,261.849063 C240.623864,260.13571 241.618982,258.724713 242.912634,257.515285 C243.410192,257.112144 243.808239,256.709002 244.40531,256.30586 C245.00238,255.801932 245.599452,255.398791 246.296032,255.096435 C247.390662,254.491721 248.485293,253.987794 249.679433,253.584652 C250.475528,253.282296 251.371133,253.080724 252.266738,252.879155 C254.455998,252.47601 256.744769,252.375227 258.934027,252.879155 C260.924262,253.282296 262.814987,254.290149 264.606197,255.398791 C264.70571,255.499577 264.904732,255.499577 265.004245,255.701146 C266.098875,256.406646 267.193503,257.112144 268.18862,257.817643 C269.183738,258.523141 270.079346,259.329424 270.974951,260.13571 C271.671533,260.740421 272.268603,261.345135 272.865673,262.050632 C273.761281,263.058488 274.656886,264.066343 275.452981,265.174985 C276.448099,266.485196 277.343704,267.996977 278.040287,269.50876 C278.239309,269.911902 278.438334,270.415829 278.537844,270.818971 C278.637357,270.919757 278.637357,271.020543 278.637357,271.121327 C279.433452,273.137038 279.931009,275.152749 280.627592,277.269243 C281.02564,278.88181 281.523197,280.494379 281.921245,282.106946 C282.319292,283.618729 282.81685,285.130512 283.214897,286.642293 C284.50855,291.983926 286.001228,297.728698 283.91148,302.868759 Z"
                        id="Shape"
                        fill="#2D6BD2"></path>
                    <path
                        d="M259.636999,222.242434 C251.799021,222.242434 245.50801,237.098708 245.50801,246.735209 C245.50801,252.356503 247.673769,257.375514 251.077101,260.587682 C251.489625,260.587682 252.108414,260.4873 252.314677,260.4873 C252.933466,260.4873 253.655384,260.587682 254.274173,260.788441 C254.89296,260.989202 255.511746,261.189963 256.027404,261.491103 C256.130536,261.591483 256.54306,261.792244 256.749322,261.993005 C256.852453,261.993005 256.955585,262.093384 257.161849,262.193766 C257.574374,262.394525 257.883767,262.595286 258.296292,262.796047 C258.605687,262.996806 258.915081,263.197567 259.121343,263.398328 C259.327605,263.498707 259.430736,263.599089 259.636999,263.699468 L259.636999,263.699468 C260.049526,263.398328 260.565181,263.097187 260.977706,262.796047 C261.18397,262.595286 261.493364,262.494906 261.699626,262.394525 C262.112151,262.193766 262.318413,262.093384 262.524677,261.993005 C262.73094,261.691864 264.38104,261.189963 264.484171,261.089581 C265.515485,260.788441 266.443665,260.788441 267.474979,260.989202 L267.57811,260.989202 C271.290838,257.877415 273.76599,252.557262 273.76599,246.63483 C273.76599,237.098708 267.371848,222.242434 259.636999,222.242434 Z"
                        id="Shape"
                        fill="#FFE298"></path>
                    <path
                        d="M222.010828,288.497374 L219.637628,304.310694 C218.549911,303.678161 217.462196,303.045628 216.374478,302.307672 C211.133661,298.934165 206.189495,294.822702 201.640862,289.973286 C204.904012,271.102724 208.364928,265.093664 208.364928,265.093664 C208.364928,265.093664 208.364928,265.093664 208.364928,265.199087 C208.364928,265.199087 208.364928,265.304507 208.463813,265.304507 L222.010828,288.497374 Z"
                        id="Shape"
                        fill="#0B0B0B"></path>
                    <path
                        d="M254.551827,312.125763 C254.748623,312.634778 254.94542,313.143791 255.142217,313.652806 L255.043818,313.652806 C252.780657,313.652806 250.517496,313.449201 248.352733,313.245595 C245.400783,312.940185 242.448834,312.431172 239.496884,311.718551 C232.313804,310.089706 225.327524,307.341026 218.734836,303.676122 C217.652455,303.065305 216.570073,302.454488 215.487692,301.741867 C213.81492,282.602924 208.403013,267.841506 207.714225,266.009053 C207.714225,265.907251 207.615826,265.907251 207.615826,265.907251 L207.615826,265.805447 C210.469378,262.445953 223.654752,259.086456 232.117008,257.254005 C236.348135,256.337779 239.300085,255.726962 239.300085,255.726962 L239.00489,260.511698 L239.103288,261.326121 L241.956842,279.854247 C241.956842,279.854247 249.139919,297.364345 254.551827,312.125763 C254.551827,312.125763 254.551827,312.125763 254.551827,312.125763 Z"
                        id="Shape"
                        fill="#000000"></path>
                    <path
                        d="M256.313979,312.120286 C256.413249,312.631128 256.611787,313.141967 256.711055,313.652806 C254.427868,313.652806 252.144678,313.448471 249.960759,313.244133 C246.684878,309.157416 243.111192,303.538175 239.835311,296.182081 C236.956507,289.745496 234.375511,281.878563 232.489398,272.581275 L238.346274,270.537915 L229.809134,263.181821 C229.809134,263.181821 231.000363,260.423286 233.581359,257.051743 C235.864549,253.986702 239.338965,250.410823 243.905344,247.754455 C243.905344,247.754455 243.905344,247.754455 243.905344,247.856624 L243.905344,247.856624 C244.004612,248.469632 244.401688,251.330336 245.096573,255.519222 C245.493649,257.971253 245.989994,260.934125 246.48634,264.203502 L246.48634,264.203502 C248.968068,278.50702 252.641022,298.838449 256.313979,312.120286 C256.313979,312.120286 256.313979,312.120286 256.313979,312.120286 Z"
                        id="Shape"
                        fill="#000000"></path>
                    <path
                        d="M259.636999,263.805768 C259.636999,263.805768 249.369785,256.577362 244.702871,270.077473 C244.702871,270.077473 242.421268,247.222955 245.739964,242.970951 C245.636254,242.970951 248.95495,254.663961 259.636999,263.805768 Z"
                        id="Shape"
                        fill="#FFFFFF"></path>
                    <path
                        d="M316.465958,289.227972 C311.918945,294.076247 306.97654,298.186739 301.737591,301.559453 C300.650261,302.297233 299.562931,302.929618 298.475603,303.562001 L296.103248,287.752411 L309.645439,264.565008 C309.645439,264.459613 309.744288,264.459613 309.744288,264.459613 L309.744288,264.354215 C309.744288,264.354215 313.20397,270.36186 316.465958,289.227972 Z"
                        id="Shape"
                        fill="#111111"></path>
                    <path
                        d="M310.063188,264.873147 L310.063188,264.873147 C310.063188,264.976935 309.965468,264.976935 309.965468,265.080721 C309.281425,266.948879 303.906789,281.997922 302.147819,301.509784 C301.072893,302.23629 299.997964,302.85901 298.923038,303.481728 C292.962081,307.010469 286.610239,309.605133 280.062959,311.265717 C276.642737,312.199794 273.124794,312.822515 269.509132,313.23766 C267.261557,313.549021 265.111704,313.652806 262.864129,313.652806 L262.766409,313.652806 C262.961849,313.133875 263.157292,312.61494 263.352732,312.096009 L263.352732,311.992223 C268.727366,297.046965 275.860972,279.091898 275.860972,279.091898 L278.206267,263.627709 L278.89031,259.372462 L278.59715,254.494497 C278.59715,254.494497 281.626488,255.013429 285.730755,256.051295 C294.134727,257.919452 307.327012,261.344405 310.063188,264.873147 Z"
                        id="Shape"
                        fill="#0E0F0F"></path>
                    <path
                        d="M279.792852,270.706666 L285.232578,272.644853 C284.540251,275.909169 283.847921,278.867454 283.056687,281.723728 C278.902714,296.719174 272.968468,306.818148 267.825451,313.244767 C265.550656,313.550798 263.374766,313.652806 261.099972,313.652806 C261.198876,313.142758 261.396683,312.632708 261.495587,312.122659 L261.495587,312.020648 C265.155041,298.759372 268.814494,278.459415 271.287096,264.280048 C271.583809,262.545881 271.781618,260.913723 272.07833,259.485585 C273.166275,253.058966 273.759699,248.672543 273.957509,247.856464 L273.957509,247.856464 L273.957509,247.754455 C278.507098,250.406712 281.869838,253.977054 284.243537,257.03735 C286.716141,260.403675 288.001895,263.15794 288.001895,263.15794 L279.693948,270.298627 L279.496139,270.502647 L279.792852,270.706666 Z"
                        id="Shape"
                        fill="#000000"></path>
                    <path
                        d="M259.636999,263.805768 C259.636999,263.805768 269.904215,256.577362 274.571129,270.077473 C274.571129,270.077473 276.852732,247.222955 273.534036,242.970951 C273.534036,242.970951 270.215342,254.663961 259.636999,263.805768 Z"
                        id="Shape"
                        fill="#FFFFFF"></path>
                    <g id="Group" transform="translate(229.809134, 207.891922)" fill="#FFE298">
                        <path
                            d="M55.6821364,8.53227899 C53.816878,13.3013281 49.3991607,18.2777272 46.6503591,17.4483273 C43.9015572,16.6189275 43.8033858,10.1910787 45.6686439,5.42202959 C47.5339023,0.65298047 50.5772188,-0.591119296 53.3260205,0.238280548 C56.0748224,1.06768039 57.5473948,3.76322988 55.6821364,8.53227899 Z"
                            id="Shape"></path>
                        <path
                            d="M0.8338211,8.53227899 C2.69907947,13.3013281 7.11679667,18.2777272 9.86559848,17.4483273 C12.6144003,16.6189275 12.7125718,10.1910787 10.8473134,5.42202959 C8.98205504,0.65298047 5.93873874,-0.591119296 3.18993694,0.238280548 C0.441135126,1.06768039 -1.03143727,3.76322988 0.8338211,8.53227899 Z"
                            id="Shape"></path>
                    </g>
                    <g id="Group" transform="translate(232.948909, 182.379901)" fill="#FFE298">
                        <ellipse id="Oval" cx="24.6252587" cy="32.5972648" rx="21.5106014" ry="28.6855929"></ellipse>
                        <path
                            d="M35.6238919,23.8712277 L31.5359043,6.61975222 C31.5359043,6.61975222 36.9865544,-0.100299276 38.4465498,0.100299276 C39.9065454,0.300897829 48.1798538,9.32783267 48.1798538,9.32783267 L48.1798538,22.16614 L48.1798538,27.4820016 L45.9411938,32.1960677 L36.9865544,28.1840966 L35.6238919,23.8712277 Z"
                            id="Shape"></path>
                        <polygon id="Shape" points="19.5639406 8.52543847 6.03464834 5.91765729 1.55732861 10.531424 0.681331264 20.7619501 3.3093233 31.8951698 20.634604 27.0808044"></polygon>
                    </g>
                    <g id="rectangular-eyeglass-frame" transform="translate(234.518796, 211.080925)" fill="#000000">
                        <path
                            d="M0.848067846,9.39935211 C0.851309459,9.46039104 0.958282705,10.8861898 3.26384174,11.6536054 C4.42279576,12.0388432 8.54412146,12.7560105 12.2897287,12.7560105 C16.0293158,12.7560105 18.4276468,12.0630011 19.4171107,10.6927656 C20.3043866,9.46522262 20.8614811,8.36619966 21.3094412,7.48379241 C22.1147506,5.89549163 22.4847576,5.25079806 23.5486243,5.25079806 C24.6120279,5.25079806 24.9814175,5.8953306 25.7878075,7.48379241 C26.2362306,8.36684387 26.7925533,9.46522262 27.6798293,10.6945371 C28.6692932,12.0630011 31.0671611,12.7560105 34.8064394,12.7560105 C38.5520466,12.7560105 42.6732179,12.0388432 43.8323264,11.6536054 C46.1381942,10.8861898 46.2454761,9.46039104 46.246248,9.4268921 C46.2494895,9.39677527 46.3340801,8.68556695 46.3916573,7.62729029 C46.5179259,6.8674441 47.0966311,3.37662889 47.0966311,2.91295846 C47.0966311,2.72903639 47.018215,2.14956911 46.054221,2.09899859 C45.049475,0.281036795 40.4808068,0 37.7510594,0 C34.3509156,0 30.8234224,0.446598871 29.172978,1.08710508 C25.4353977,2.53641747 23.7679735,2.5781301 23.5901479,2.5781301 L23.506329,2.5781301 C23.3285033,2.5781301 21.6610791,2.53641747 17.9239618,1.08710508 C16.2721281,0.447404134 12.7444808,0 9.34541744,0 C6.6165963,0 2.0468474,0.281842058 1.04256466,2.09899859 C0.0779530873,2.14940806 0,2.72903639 0,2.91295846 C0,3.37582365 0.57947701,6.86760516 0.705282488,7.62729029 C0.762859717,8.68556695 0.847296033,9.39677527 0.848067846,9.39935211 Z M26.9813388,4.30558032 C27.0917079,3.88990357 27.3203188,3.59598256 27.6799836,3.40835626 C29.3026427,2.56186378 33.7890359,1.63291236 36.2542057,1.63291236 L36.3077695,1.63291236 C36.3110111,1.63291236 36.5396221,1.62502078 36.9153405,1.62502078 C40.8671761,1.62502078 43.4728161,2.33639013 43.5535475,3.43798994 C43.7318363,5.84234428 43.5552457,8.54384067 43.5527759,8.58152698 C43.5518496,8.59489434 43.4295945,9.9308257 40.6896592,10.4561793 C38.9327046,10.7932624 36.3213535,11.2409886 33.9210158,11.2409886 C31.11702,11.2409886 29.3281124,10.6447719 28.6055415,9.46973208 C27.2770974,7.31194931 26.6857345,5.4294054 26.9813388,4.30558032 Z M3.54339232,3.43782891 C3.62443267,2.33703434 6.23022685,1.62485973 10.1811363,1.62485973 C10.5568547,1.62485973 10.7862375,1.6327513 10.8425798,1.63355657 C13.3068236,1.63355657 17.7941429,2.56250799 19.4163389,3.40900047 C19.7764667,3.59662677 20.0053864,3.89054778 20.1152925,4.30638559 C20.4105881,5.43021067 19.8195339,7.31194931 18.4918616,9.47021526 C17.7692905,10.6462214 15.980846,11.2414718 13.1768503,11.2414718 C10.7762039,11.2414718 8.16361776,10.7945508 6.40789815,10.4568235 C3.66749981,9.93050358 3.5455534,8.59618276 3.54400976,8.57202487 C3.54169432,8.54367961 3.36464049,5.84476008 3.54339232,3.43782891 Z"
                            id="Shape"></path>
                    </g>
                    <path
                        d="M255.810441,175.113195 C255.810441,175.113195 262.897506,163.210608 276.073459,175.113195 C276.073459,175.113195 272.480017,174.507979 270.683297,175.113195 C270.683297,175.113195 292.643215,176.626236 286.9536,202.247061 C286.9536,202.247061 287.153235,209.307918 281.263985,215.864429 C281.263985,215.864429 288.051597,186.511436 270.184208,193.673163 C270.184208,193.673163 258.505523,200.330544 250.120826,193.370554 C250.120826,193.370554 234.050159,188.730563 237.543782,215.460952 C237.543782,215.460952 218.87785,181.568836 239.540138,177.231452 C239.540138,177.231452 244.9303,165.429734 264.594409,168.556685 C264.594409,168.455815 257.70698,168.455815 255.810441,175.113195 Z"
                        id="Shape"
                        fill="#28180A"></path>
                </g>
            </g>
        </g>
    </g>
</svg>
