<?xml version="1.0" encoding="UTF-8"?>
<svg width="900px" height="645px" viewBox="0 0 900 645" version="1.1" xmlns="http://www.w3.org/2000/svg" xmlns:xlink="http://www.w3.org/1999/xlink">
    <!-- Generator: Sketch 47 (45396) - http://www.bohemiancoding.com/sketch -->
    <title>sound_design</title>
    <desc>Created with Sketch.</desc>
    <defs>
        <linearGradient x1="59.2517109%" y1="72.7061604%" x2="72.944544%" y2="116.454285%" id="linearGradient-1">
            <stop stop-color="#12D674" stop-opacity="0.809499547" offset="0%"></stop>
            <stop stop-color="#04502A" stop-opacity="0.807263361" offset="100%"></stop>
        </linearGradient>
    </defs>
    <g id="Page-1" stroke="none" stroke-width="1" fill="none" fill-rule="evenodd">
        <g id="sound_design">
            <g>
                <rect id="Rectangle" fill-opacity="0.780000031" fill="#641989" fill-rule="nonzero" x="0" y="0" width="900" height="644.054878"></rect>
                <g id="Group" transform="translate(196.000000, 68.000000)" fill-rule="nonzero">
                    <path d="M255.072663,506.989293 C294.443975,506.989293 331.725729,498.072975 364.99588,482.155899 C450.417756,441.288443 509.394472,354.270774 509.394472,253.524787 C509.394472,113.540205 395.53072,0.0602814135 255.072663,0.0602814135 C114.614606,0.0602814135 0.750854863,113.540205 0.750854863,253.524787 C0.750854863,393.509369 114.614606,506.989293 255.072663,506.989293 Z" id="Oval" fill="url(#linearGradient-1)"></path>
                    <path d="M143.135603,225.874114 C145.915336,167.308113 194.455777,120.675104 253.932207,120.675104 C313.408636,120.675104 361.95354,167.308113 364.731041,225.874114 L377.101513,225.874114 C374.312858,160.50434 320.246417,108.358751 253.932207,108.358751 C187.626919,108.358751 133.553787,160.50434 130.7629,225.874114 L143.135603,225.874114" id="Fill-64" fill="#000000"></path>
                    <path d="M144.448378,225.874114 C120.514645,225.874114 101.111031,245.474894 101.111031,269.654348 C101.111031,293.833799 120.514645,313.434579 144.448378,313.434579 L144.448378,225.874114" id="Fill-65" fill="#FB7E14"></path>
                    <path d="M138.963117,320.347249 L136.248162,320.347249 C133.231219,320.347249 130.7629,317.457217 130.7629,313.924833 L130.7629,229.992307 C130.7629,226.459921 133.231219,223.569892 136.248162,223.569892 L138.963117,223.569892 C141.980059,223.569892 144.448378,226.459921 144.448378,229.992307 L144.448378,313.924833 C144.448378,317.457217 141.980059,320.347249 138.963117,320.347249" id="Fill-66" fill="#000000"></path>
                    <path d="M367.977861,313.434579 C391.910093,313.434579 411.315208,293.833799 411.315208,269.654348 C411.315208,245.474894 391.910093,225.874114 367.977861,225.874114 L367.977861,313.434579" id="Fill-67" fill="#FB7E14"></path>
                    <path d="M371.175023,223.569892 L373.894636,223.569892 C376.91535,223.569892 379.382426,226.459921 379.382426,229.992307 L379.382426,313.924833 C379.382426,317.456081 376.91535,320.347249 373.894636,320.347249 L371.175023,320.347249 C368.164025,320.347249 365.696948,317.456081 365.696948,313.924833 L365.696948,229.992307 C365.696948,226.459921 368.164025,223.569892 371.175023,223.569892" id="Fill-68" fill="#000000"></path>
                    <polyline id="Fill-69" fill="#2BEDF9" points="248.714061 304.217688 239.193161 237.870565 229.973271 286.319928 224.008773 265.046813 217.172453 302.393917 205.390617 247.919678 192.138281 296.061252 184.662031 259.149419 180.131242 271.31057 155.852943 271.31057 155.852943 266.749997 177.086562 266.749997 185.921822 243.043273 192.792704 276.965638 205.906796 229.329391 216.812352 279.754124 223.103506 245.380412 229.148275 266.942939 239.804102 210.948126 249.417537 277.930353 259.674246 226.302023 269.406972 264.59202 280.354891 202.831886 291.079843 275.71725 298.337577 242.557471 309.174014 276.439639 322.084089 239.102872 329.92155 274.830632 335.00531 239.268251 341.705617 267.319638 343.58973 264.469135 354.292383 264.469135 354.292383 269.029708 345.930936 269.029708 339.776911 278.341507 336.097874 262.926738 330.835736 299.715686 321.136457 255.451345 309.006784 290.504955 299.140277 259.636372 290.2214 300.349641 279.953542 230.507722 270.176225 285.629699 260.198231 246.38647 248.714061 304.217688"></polyline>
                </g>
            </g>
        </g>
    </g>
</svg>
